P2
# imagen.pgm
4 3
15

15 10 10 15
15 0 0 15
15 15 15 15